<?xml version="1.0" encoding="utf-8" ?><svg xmlns="http://www.w3.org/2000/svg" xmlns:xlink="http://www.w3.org/1999/xlink" width="525" height="525" viewBox="250 251 525 525"><path fill="#E3D0CC" d="M351.95 752.927C342.733 750.807 328.275 741.958 320.519 736.761C296.523 720.492 275.08 694.222 270.342 665.006C267.986 650.484 266.914 636.244 266.357 621.548C265.815 607.247 264.798 592.969 264.745 578.652C264.709 568.931 265.379 559.271 265.472 549.56L265.848 465.665C265.994 453.82 264.909 441.022 265.287 429.387C265.87 411.483 266.351 388.351 269.171 370.887C271.917 353.878 282.578 328.05 292.571 313.962C311.674 287.027 351.138 271.08 382.456 264.287C389.279 262.874 399.646 263.005 406.748 262.485C426.216 261.062 444.782 261.765 464.218 262.213L553.742 264.302C562.385 264.508 572.218 263.03 580.448 263.478C618.555 265.552 666.884 262.852 699.408 286.174C714.786 294.585 737.194 317.759 743.206 334.677C745.781 340.457 751.858 359.192 752.975 365.423C758.197 385.655 759.928 419.678 760.709 440.848L760.953 447.448C761.078 458.137 761.088 468.828 760.982 479.517C760.928 484.297 760.558 490.387 760.691 495.019L760.503 495.923L760.443 507.606C761.262 517.796 761.182 526.257 761.114 536.52C761.175 542.736 761.179 548.952 761.125 555.168L761.094 556.416C761.109 567.241 761.749 579.066 761.366 589.824C760.699 608.554 759.279 628.438 756.712 647.04C755.939 652.638 754.687 660.029 752.958 665.223L752.561 666.835C737.758 716.033 709.899 741.696 659.832 755.097C621.507 765.356 587.04 762.518 548.253 762.525C540.848 762.498 533.444 762.58 526.042 762.77C520.907 762.893 511.738 763.322 506.947 762.559C500.426 762.708 493.522 762.581 486.97 762.559L482.095 762.557C479.341 762.563 476.588 762.534 473.835 762.47C452.435 763.332 417.042 763.277 396.703 761.118C381.027 759.671 367.09 757.682 351.95 752.927Z"/><path fill="#C0A9A4" d="M732.562 685.572C738.144 681.456 747.054 669.437 752.561 666.835C737.758 716.033 709.899 741.696 659.832 755.097C621.507 765.356 587.04 762.518 548.253 762.525C540.848 762.498 533.444 762.58 526.042 762.77C520.907 762.893 511.738 763.322 506.947 762.559C512.246 762.205 510.674 762.758 513.004 758.48C514.477 755.776 519.036 753.288 521.679 751.675C541.944 739.305 563.895 748.392 585.74 747.886C596.115 747.648 607.829 747.603 618.272 746.398C619.595 746.246 623.336 743.746 625.41 743.189L624.285 744.961L624.727 745.472C626.863 745.472 626.968 745.379 629.011 744.54L629.532 744.321L629.358 744.518C631.44 743.594 632.8 742.794 635.069 742.646L634.805 743.831C638.847 744.193 645.065 740.922 648.865 739.196L648.96 739.523L647.851 741.01C649.445 741.129 653.374 738.58 655.079 737.614L655.528 738.105L654.891 739.637L655.568 739.784L654.907 739.617C658.801 740.208 666.041 733.915 670.052 732.65C668.998 733.679 668.902 733.588 668.225 734.821C670.82 733.709 678.568 729.874 680.569 728.026L679.347 727.77C680.307 725.866 691.3 722.281 693.987 719.292L691.309 719.514L690.959 719.106C693.85 716.613 694.859 719.82 698.609 715.069L698.737 714.221C704.593 713.882 725.797 691.559 732.002 686.311L732.562 685.572Z"/><path fill="#DAC7C4" d="M752.975 365.423C758.197 385.655 759.928 419.678 760.709 440.848L760.953 447.448C761.078 458.137 761.088 468.828 760.982 479.517C760.928 484.297 760.558 490.387 760.691 495.019L760.503 495.923C758.041 495.959 757.413 495.813 755.459 497.373C754.552 496.166 755.13 496.492 753.724 496.272C752.399 497.07 752.064 497.281 750.823 498.308L749.428 497.11L746.86 495.014L746.502 494.998C745.687 495.042 745.303 494.965 744.49 494.884C743.225 493.992 743.272 493.487 742.789 491.977C742.254 490.27 741.531 487.627 743.184 486.587L745.422 487.151C746.113 485.214 743.758 475.773 743.341 473.434L742.745 473.209C739.779 474.851 740.184 475.852 737.934 477.953L736.887 477.723C735.347 476.013 735.283 475.828 734.281 473.714L734.658 473.301C736.86 472.963 738.682 473.138 739.468 470.971C738.8 468.561 737.355 468.5 736.903 466.619L737.759 465.808C739.713 466.326 741.724 468.145 743.029 469.664C742.469 470.721 742.453 470.636 742.535 471.82C743.32 471.181 743.055 471.216 743.94 470.988L744.47 472.808L745.131 472.74L745.613 471.739L744.154 469.379C743.655 467.235 742.488 468.042 742.477 465.417C742.139 464.166 742.538 457.376 743.014 456.333C745.524 450.822 739.314 446.45 742.534 441.981C742.619 442.741 742.688 443.268 742.805 444.007C744.745 444.771 746.139 444.634 748.324 445.299C747.99 443.746 748.184 441.755 748.256 440.117L747.214 439.676L747.097 438.416L745.645 437.952L745.134 438.323C745.376 439.638 745.596 440.401 745.96 441.672L745.504 442.082C744.195 440.939 743.889 440.705 742.281 440.071C740.411 434.859 743.294 432.905 742.632 429.328L743.575 428.993L745.58 430.124L746.313 429.882L746.281 428.345C747.694 427.664 750.494 426.591 750.927 425.133C748.266 425.45 747.004 425.175 744.787 423.715C743.835 421.971 744.001 422.91 744.552 420.762C745.445 419.913 745.762 419.804 746.928 419.4C747.89 415.667 745.17 419.479 746.132 416.934C746.968 414.72 751.188 408.069 751.109 405.988C752.427 403.019 753.742 401.486 756.69 400.037C759.302 398.753 751.202 368.871 752.975 365.423Z"/><path fill="#D6B6B0" d="M752.346 487.311C752.34 488.542 752.295 488.254 752.553 489.468C754.592 489.806 755.97 491.768 756.936 493.437C757.962 494.387 759.313 494.766 760.691 495.019L760.503 495.923C758.041 495.959 757.413 495.813 755.459 497.373C754.552 496.166 755.13 496.492 753.724 496.272C752.399 497.07 752.064 497.281 750.823 498.308L749.428 497.11L746.86 495.014L746.502 494.998C746.008 493.42 746.834 490.648 747.37 489.091C747.873 487.627 750.599 487.598 752.346 487.311Z"/><path fill="#C0A9A4" d="M746.86 495.014C748.798 491.415 750.4 494.083 753.738 494.075C754.419 494.073 756.209 493.62 756.936 493.437C757.962 494.387 759.313 494.766 760.691 495.019L760.503 495.923C758.041 495.959 757.413 495.813 755.459 497.373C754.552 496.166 755.13 496.492 753.724 496.272C752.399 497.07 752.064 497.281 750.823 498.308L749.428 497.11L746.86 495.014Z"/><path fill="#D4C0BD" d="M742.789 491.977C743.521 490.178 743.365 489.925 743.087 487.892L743.002 487.312L743.581 486.898L745.59 488.357L746.283 488.141C747.594 484.724 746.935 480.804 748.14 476.376L748.906 476.048C750.661 476.564 751.16 476.592 752.575 477.803C752.807 480.453 750.961 479.853 749.98 483.43C750.157 485.198 750.714 485.541 751.924 486.86L752.346 487.311C750.599 487.598 747.873 487.627 747.37 489.091C746.834 490.648 746.008 493.42 746.502 494.998C745.687 495.042 745.303 494.965 744.49 494.884C743.225 493.992 743.272 493.487 742.789 491.977Z"/><path fill="#D4C0BD" d="M760.953 447.448C758.343 447.064 756.718 447.28 755.186 445.081L755.489 443.886C757.453 441.584 757.918 441.871 760.709 440.848L760.953 447.448Z"/><path fill="#D6B6B0" d="M748.256 440.117C750.025 440.843 751.8 441.352 753.039 442.762L753.502 444.235C752.51 445.671 753.154 445.069 751.258 445.794L748.324 445.299C747.99 443.746 748.184 441.755 748.256 440.117Z"/><path fill="#D6B6B0" d="M744.154 469.379C744.867 467.012 744.505 466.837 747.36 466.771C750.189 468.393 749.356 471.723 747.036 473.193C746.084 472.647 746.142 472.701 745.613 471.739L744.154 469.379Z"/><path fill="#D4C0BD" d="M752.383 448.67C755.034 449.251 756.095 449.493 757.557 452.008L756.937 452.5C752.469 452.246 757.035 452.073 753.063 450.068L752.713 452.099C751.389 453.39 752.166 453.058 750.286 453.09C748.739 452.273 748.833 452.357 748 450.816L748.266 449.931C750.313 449.815 750.722 449.861 752.383 448.67Z"/><path fill="#D4C0BD" d="M752.736 457.523L753.77 458.241C755.831 463.229 752.589 467.214 747.119 465.751C747.787 464.044 747.822 463.551 749.326 462.479C751.004 462.465 750.2 462.224 751.667 463.657C753.575 461.844 753.5 459.74 752.736 457.523Z"/><path fill="#E3D0CC" d="M747.887 431.332C750.836 433.1 750.401 432.701 750.486 435.986L751.181 436.544L752.557 436.228L752.351 437.603L752.14 438.104L751.56 438.185C747.79 435.352 747.401 435.988 747.887 431.332Z"/><path fill="#D4C0BD" d="M741.504 551.756L742.191 551.687C743.089 552.803 743.131 553.214 743.445 554.612C744.811 554.116 744.8 554.026 745.956 553.101C746.232 554.212 746.525 555.318 746.835 556.42C748.197 556.96 747.504 556.904 748.989 556.496L749.318 555.368C753.526 554.594 756.918 554.888 761.125 555.168L761.094 556.416C761.109 567.241 761.749 579.066 761.366 589.824C760.699 608.554 759.279 628.438 756.712 647.04C755.939 652.638 754.687 660.029 752.958 665.223C752.85 663.82 752.592 662.573 753.015 661.126C755.456 652.768 755.793 643.626 757.57 635.078C758.355 631.297 750.609 632.556 748.384 632.669C747.67 632.068 747.935 632.328 747.301 631.645L746.863 631.165C744.842 631.566 742.933 632.376 741.029 631.544L740.809 630.693C741.919 629.592 742.45 629.06 743.453 627.82L743.053 626.946C739.473 625.893 741.265 629.089 738.661 630.498C737.358 629.31 737.002 628.143 737.301 626.464C739.581 624.348 742.624 625.937 745.404 625.317L745.079 623.763L745.751 623.107C747.337 623.243 747.519 623.351 749.092 622.942L749.595 622.002C744.639 619.508 748.872 617.16 749.283 615.138C747.377 612.907 747.391 613.248 747.992 610.37C746.797 610.457 746.64 610.916 745.49 611.814L745.094 611.049C745.667 609 745.661 608.436 747.031 606.918C747.416 605.986 747.263 605.924 747.263 604.806C746.24 603.478 742.249 602.875 739.67 600.997C741.61 598.991 742.424 597.383 742.237 594.634C741.438 593.05 741.55 593.111 740.018 592.241L736.844 591.477C737.873 591.313 738.897 591.127 739.918 590.919C741.352 589.608 740.875 590.376 741.444 588.554C741.079 587.395 740.94 586.97 740.752 585.778L741.488 585.263C747.674 583.709 743.833 586.104 747.145 585.929L747.245 584.249C749.33 583.593 750.244 583.335 752.385 582.963L752.454 582.448L751.514 581.685C749.91 582.683 749.342 583.037 747.593 583.797C743.397 582.875 745.197 574.72 745.32 571.551C745.465 567.842 746.455 568.258 744.008 565.304L743.725 564.967L743.862 563.757C745.498 563.063 747.013 561.881 748.419 561.448C746.614 559.536 740.109 557.366 739.773 556.987C740.423 555.676 740.623 555.439 741.725 554.475C742.24 552.605 742.324 553.48 741.504 551.756Z"/><path fill="#D6B6B0" d="M741.488 585.263C747.674 583.709 743.833 586.104 747.145 585.929L747.245 584.249C749.33 583.593 750.244 583.335 752.385 582.963L752.296 583.581C752.008 585.72 751.837 586.01 752.598 587.904C753.88 589.032 756.067 590.474 756.581 591.725C755.905 592.231 754.887 593.235 754.239 593.126C752.147 592.774 747.895 590.157 746.406 588.806L745.819 589.015C745.077 589.274 744.431 589.47 743.68 589.69C742.214 588.597 741.709 587.102 741.488 585.263Z"/><path fill="#CBB8B2" d="M748.419 561.448L749.666 561.998C749.35 563.129 749.601 562.65 748.987 563.47C752.004 564.94 751.143 566.88 753.668 569.28L753.453 570.572L753.646 572.246L752.814 572.902C750.291 572.916 749.107 573.047 746.641 572.391C745.453 570.296 746.878 568.48 745.892 565.381C744.864 564.753 745.206 565.143 744.727 564.351C746.838 564.006 746.904 563.357 748.419 561.448Z"/><path fill="#E3D0CC" d="M748.987 563.47C752.004 564.94 751.143 566.88 753.668 569.28L753.453 570.572C752.932 571.059 752.631 571.243 752.051 571.655C748.661 570.829 746.664 567.04 747.549 563.847L748.987 563.47Z"/><path fill="#D6B6B0" d="M761.125 555.168L761.094 556.416C756.66 557.991 757.216 560.052 754.105 560.265C751.484 559.124 751.103 558.285 748.989 556.496L749.318 555.368C753.526 554.594 756.918 554.888 761.125 555.168Z"/><path fill="#E3D0CC" d="M753.019 577.823C754.469 578.983 754.107 578.271 754.366 579.903L753.464 580.776C751.664 581.238 751.792 581.196 750.003 580.635C748.812 579.355 749.124 580.103 749.122 578.281C750.192 578.861 750.202 578.914 751.376 579.168L752.4 578.042L753.019 577.823Z"/><path fill="#CBB8B2" d="M752.4 578.042C751.609 576.676 751.796 577.391 751.802 575.823C753.202 574.412 753.726 574.124 755.811 574.664C755.01 576.002 754 576.581 753.019 577.823L752.4 578.042Z"/><path fill="#5857FC" d="M736.844 591.477L740.018 592.241C741.55 593.111 741.438 593.05 742.237 594.634C742.424 597.383 741.61 598.991 739.67 600.997C719.443 627.954 697.561 637.171 664.753 641.583C657.243 642.593 636.102 643.004 628.911 640.917C629.578 638.81 628.527 637.797 630.087 634.359C632.42 632.693 634.094 633.436 637.07 633.921L638.03 634.037C647.443 635.233 656.262 633.901 665.583 632.667L665.559 631.333C668.548 630.049 675.129 629.822 678.571 628.62C695.408 622.742 713.432 616.247 725.732 602.742C729.195 598.941 732.411 593.961 736.844 591.477Z"/><path fill="#221B92" d="M736.844 591.477L740.018 592.241C732.165 596.081 732.572 600.189 726.851 605.72C712.124 619.958 685.91 630.878 665.583 632.667L665.559 631.333C668.548 630.049 675.129 629.822 678.571 628.62C695.408 622.742 713.432 616.247 725.732 602.742C729.195 598.941 732.411 593.961 736.844 591.477Z"/><path fill="#CBB8B2" d="M747.475 524.125L747.719 526.421L749.47 525.194C751.018 525.714 750.333 525.464 751.635 526.996L750.722 529.07C751.549 529.811 751.355 529.66 752.287 530.207C751.941 531.494 752.265 530.932 751.046 531.763L749.08 531.376L748.636 531.858C749.019 533.309 749.767 537.409 750.673 537.971C751.087 533.836 753.837 531.543 753.008 526.6L751.579 525.488L753.767 525.946C754.744 530.028 754.336 536.063 761.114 536.52C761.175 542.736 761.179 548.952 761.125 555.168C756.918 554.888 753.526 554.594 749.318 555.368L748.989 556.496C747.504 556.904 748.197 556.96 746.835 556.42C746.525 555.318 746.232 554.212 745.956 553.101C744.8 554.026 744.811 554.116 743.445 554.612C743.131 553.214 743.089 552.803 742.191 551.687L741.504 551.756L738.753 549.923C739.878 549.335 740.993 548.729 742.098 548.104C744.618 546.662 744.957 545.563 745.675 542.906L745.822 542.341C747.225 541.394 747.229 541.725 749.259 541.661L749.568 541.001L748.772 539.683C746.055 538.105 748.067 539.992 744.733 539.32C744.872 538.213 745.033 537.352 745.25 536.256L744.748 535.67C742.44 535.603 740.601 536.197 740.147 533.833C744.18 532.089 745.775 534.065 748.304 527.325L746.405 526.485L747.475 524.125Z"/><path fill="#C0A9A4" d="M742.191 551.687C743.178 550.397 742.865 550.747 744.937 550.37C746.174 551.586 745.65 550.86 745.956 553.101C744.8 554.026 744.811 554.116 743.445 554.612C743.131 553.214 743.089 552.803 742.191 551.687Z"/><path fill="#D6B6B0" d="M753.352 533.751C754.322 534.962 754.225 537.022 754.619 539.015C755.753 540.206 755.384 539.984 757.601 540.137L758.176 540.172C757.742 541.699 756.988 542.231 755.883 543.532C749.403 542.082 750.09 538.519 753.352 533.751Z"/><path fill="#CBB8B2" d="M351.95 752.927C356.488 752.196 358.379 754.543 362.857 754.706C362.759 753.452 362.572 752.569 362.982 751.384C364.907 752.027 363.346 753.446 365.014 754.501L366.787 753.079L367.002 753.74C366.106 754.682 366.321 754.293 365.808 755.441C367.881 756.573 372.919 757.048 375.338 757.175C375.621 757.19 378.784 753.94 380.962 753.73C381.14 752.81 378.231 753.506 377.322 751.736L378.219 751.168C379.413 751.52 380.271 751.881 381.386 752.436L382.212 751.559L381.962 750.824L379.457 750.437C382.857 748.734 386.012 747.156 389.765 746.535C393.585 745.902 397.731 743.014 400.077 747.254C399.806 748.363 399.886 747.901 399.739 749.06L399.64 749.884L399.486 750.437L399.096 750.571C398.055 753.304 398.453 752.415 395.314 754.273C396.66 755.017 396.446 754.796 398.171 754.769C397.859 756.296 397.557 755.04 397.303 755.962C396.815 757.739 396.702 759.377 396.703 761.118C381.027 759.671 367.09 757.682 351.95 752.927Z"/><path fill="#C0A9A4" d="M399.096 750.571C397.672 750.518 396.26 750.656 395.099 749.942C396.882 749.361 397.788 749.642 399.64 749.884L399.486 750.437L399.096 750.571Z"/><path fill="#D6B6B0" d="M742.477 465.417L742.003 466.564L741.323 466.722L740.71 465.476C741.358 464.512 741.354 464.551 741.684 463.442L741.425 463.11C739.592 462.537 737.192 462.975 735.037 462.962C741.231 459 735.627 458.117 732.765 453.706C729.999 449.444 729.305 444.928 728.165 440.066L726.7 439.275C727.855 427.542 733.068 415.548 737.436 404.724C739.228 400.283 745.794 387.204 745.87 383.09C743.338 383.755 744.028 390.06 741.12 391.997C740.484 391.064 748.349 372.824 747.718 369.134C747.731 369.209 747.569 361.33 747.485 361.708L748.093 361.804C749.373 364.3 747.046 382.701 746 386.202C742.099 399.262 732.268 414.057 730.683 427.545L730.852 427.317C730.771 431.167 729.396 442.316 729.722 443.995C729.936 441.927 730.356 440.102 731.14 438.189C732.261 441.78 729.55 448.981 733.238 453.129C734.996 455.107 736.608 457.634 739.239 457.944C744.455 452.988 743.06 453.575 741.261 448.12C740.915 445.497 740.897 441.551 740.934 439.051C741.062 430.484 741.214 424.81 745.696 417.487C747.295 414.873 747.922 408.95 751.109 405.988C751.188 408.069 746.968 414.72 746.132 416.934C745.17 419.479 747.89 415.667 746.928 419.4C745.762 419.804 745.445 419.913 744.552 420.762C744.001 422.91 743.835 421.971 744.787 423.715C747.004 425.175 748.266 425.45 750.927 425.133C750.494 426.591 747.694 427.664 746.281 428.345L746.313 429.882L745.58 430.124L743.575 428.993L742.632 429.328C743.294 432.905 740.411 434.859 742.281 440.071C743.889 440.705 744.195 440.939 745.504 442.082L745.96 441.672C745.596 440.401 745.376 439.638 745.134 438.323L745.645 437.952L747.097 438.416L747.214 439.676L748.256 440.117C748.184 441.755 747.99 443.746 748.324 445.299C746.139 444.634 744.745 444.771 742.805 444.007C742.688 443.268 742.619 442.741 742.534 441.981C739.314 446.45 745.524 450.822 743.014 456.333C742.538 457.376 742.139 464.166 742.477 465.417Z"/><path fill="#DAC7C4" d="M398.171 754.769L399.094 754.573C398.432 757.029 398.006 757.102 397.628 760.009C399.364 760.811 416.698 761.442 419.833 761.626C421.255 760.422 420.018 755.482 422.745 754.255C425.559 754.72 424.752 755.654 427.291 756.83L428.249 756.652C429.114 754.826 428.457 755.305 429.95 754.756C432.93 755.481 433.439 757.493 436.533 757.918C439.281 755.918 435.702 757.009 438.539 755.329C441.536 756.639 440.86 756.76 442.861 759.187C445.653 757.813 443.611 754.99 442.379 753.27L442.996 751.516L443.742 751.173C445.569 752.693 445.18 753.43 445.013 755.686L445.611 756.17C446.946 755.509 447.315 754.457 448.074 753.125L448.852 752.901C449.839 754.062 450.36 754.463 450.671 755.962C448.737 758.541 445.942 759.619 445.587 761.589C450.363 762.86 469.876 760.684 473.835 762.47C452.435 763.332 417.042 763.277 396.703 761.118C396.702 759.377 396.815 757.739 397.303 755.962C397.557 755.04 397.859 756.296 398.171 754.769Z"/><path fill="#D6B6B0" d="M755.459 497.373C757.413 495.813 758.041 495.959 760.503 495.923L760.443 507.606C761.262 517.796 761.182 526.257 761.114 536.52C754.336 536.063 754.744 530.028 753.767 525.946L751.579 525.488L750.857 525.152L751.12 524.292L752.299 523.687C753.053 522.442 752.968 522.268 754.244 521.686L754.766 522.165L754.756 524.247C755.69 523.068 755.08 519.187 757.039 517.444L757.497 517.757L757.5 518.976C756.615 519.584 757.061 519.22 756.194 520.103C756.441 520.602 758.618 521.999 759.282 522.511C758.981 525.024 756.535 526.786 756.362 528.344L756.694 527.358L757.962 528.051L759.92 526.994C761.255 521.879 759.145 506.33 759.056 500.09C759.047 499.446 758.736 499.465 758.01 499.039L757.26 499.5C757.707 500.033 757.617 499.814 758.573 500.044L758.499 500.426L756.157 501.362C757.272 501.514 757.078 501.465 758.186 501.822C757.125 502.4 756.928 502.582 756.21 503.554C754.674 503.429 753.652 502.555 752.099 502.12L751.363 501.921C751.565 500.841 751.6 500.799 751.956 499.767C751.492 498.625 751.853 499.123 750.823 498.308C752.064 497.281 752.399 497.07 753.724 496.272C755.13 496.492 754.552 496.166 755.459 497.373Z"/><path fill="#C0A9A4" d="M755.459 497.373C757.413 495.813 758.041 495.959 760.503 495.923L760.443 507.606C759.625 503.662 761.104 501.315 758.666 498.774C757.21 498.374 756.756 498.152 755.459 497.373Z"/><path fill="#D4C0BD" d="M699.408 286.174C714.786 294.585 737.194 317.759 743.206 334.677C737.949 331.303 736.954 333.806 734.069 332.076C734.259 330.814 734.268 331.442 734.046 330.193C732.416 329.793 732.716 330.06 730.752 330.98L729.692 330.564C730.158 324.611 729.844 328.167 733.48 326.869L734.04 325.512L735.036 325.176C735.975 325.955 736.487 326.323 737.506 326.998L737.765 326.63L737.242 326.938L737.819 326.216C737.566 325.159 735.336 322.695 734.545 321.426C727.395 309.945 717.136 300.235 706.338 292.21C704.226 290.64 700.375 288.305 699.408 286.174Z"/><path fill="#D6B6B0" d="M746.405 526.485C744.425 525.775 745.025 526.404 744.207 524.896C744.154 521.674 744.433 520.633 746.526 518.234C748.976 517.556 751.4 517.571 753.805 518.402C755.024 519.703 754.772 518.971 754.762 520.604C750.868 522.133 752.033 524.018 749.444 524.684L747.99 523.655L747.475 524.125L746.405 526.485Z"/><path fill="#D6B6B0" d="M729.692 330.564C728.348 328.593 727.823 328.104 725.897 326.691L726.759 325.628L726.115 325.398C727.18 322.915 727.3 323.804 727.043 320.932C728.145 319.673 728.208 319.346 729.81 318.892C732.122 320.188 732.659 324.055 733.48 326.869C729.844 328.167 730.158 324.611 729.692 330.564Z"/><path fill="#04023E" d="M637.04 633.09C645.733 633.792 656.955 632.555 665.559 631.333L665.583 632.667C656.262 633.901 647.443 635.233 638.03 634.037L637.07 633.921L637.04 633.09Z"/><path fill="#221B92" d="M628.911 640.917C627.195 639.614 626.606 638.324 626.123 636.329C627.511 631.25 633.13 632.266 637.04 633.09L637.07 633.921C634.094 633.436 632.42 632.693 630.087 634.359C628.527 637.797 629.578 638.81 628.911 640.917Z"/><path fill="#DAC7C4" d="M745.49 611.814L745.33 612.376L743.573 611.92C742.019 610.233 740.807 607.564 742.388 605.562C744.649 605.213 745.013 605.723 747.031 606.918C745.661 608.436 745.667 609 745.094 611.049L745.49 611.814Z"/><path fill="#C0A9A4" d="M698.609 715.069C692.295 715.571 686.767 717.686 680.861 719.834C683.115 716.686 694.669 714.428 698.737 714.221L698.609 715.069Z"/><path fill="#DAC7C4" d="M749.428 497.11L750.823 498.308C751.853 499.123 751.492 498.625 751.956 499.767C746.609 499.628 747.557 502.324 744.83 502.017C745.574 498.686 746.663 498.659 749.428 497.11Z"/><path fill="#DAC7C4" d="M485.73 756.613C486.132 758.598 486.545 760.58 486.97 762.559L482.095 762.557L485.73 756.613Z"/><path fill="#CBB8B2" d="M732.002 686.311L730.834 684.848C730.718 683.234 730.499 683.013 731.052 681.603L731.755 682.257C731.988 683.559 732.206 684.313 732.562 685.572L732.002 686.311Z"/><path fill="#5857FC" d="M549.712 430.9L549.87 430.22C551.436 423.22 551.298 416.05 552.415 408.994C554.807 393.887 563.431 357.587 576.548 349.142C584.138 344.256 594.711 344.325 603.201 346.374C630.948 353.069 675.718 404.244 694.335 426.548C700.102 433.458 705.26 441.301 711.3 447.904C718.654 459.063 728.324 476.656 732.691 489.244C738.526 507.485 739.613 530.072 735.982 548.761C733.707 560.475 723.54 580.503 715.776 589.145C701.061 604.778 670.563 615.653 649.658 615.521C620.965 615.339 592.254 603.1 576.715 578.451C560.471 552.682 553.191 523.222 551.459 493.151C551.327 490.861 551.128 485.901 550.675 483.861L550.512 483.34C550.777 480.444 550.193 475.175 549.923 472.214L549.894 471.427C550.157 466.794 549.716 461.622 549.446 456.948C549.449 454.195 549.34 452.137 549.14 449.411L549.031 448.743L548.976 447.525L549.18 445.598L549.455 439.219L549.669 432.543L549.712 430.9Z"/><path fill="#2A26E5" d="M568.611 444.801C569.142 423.642 571.038 398.547 578.009 378.516C584.691 359.315 595.816 365.074 609.974 371.345C613.934 372.487 619.843 376.831 623.201 379.135C637.431 388.901 650.032 399.781 659.643 414.29C661.93 417.743 664.655 420.927 666.897 424.533C670.681 430.619 668.5 436.031 660.83 434.405C655.89 431.389 650.888 420.748 647.044 415.716C643.294 410.808 638.881 407.082 634.947 402.496C620.841 393.439 610.62 381.702 594.149 374.67C583.525 386.577 580.168 428.525 579.007 444.832C578.573 450.918 580.467 467.644 577.971 471.427C577.125 472.718 575.732 473.548 574.194 473.677C572.972 473.774 572.866 473.737 571.729 473.414C566.544 469.414 568.481 451.65 568.611 444.801Z"/><defs><linearGradient id="gradient_0" gradientUnits="userSpaceOnUse" x1="595.23816" y1="408.35245" x2="570.99023" y2="399.74329"><stop offset="0" stop-color="#000042"/><stop offset="1" stop-color="#18147D"/></linearGradient></defs><path fill="url(#gradient_0)" d="M568.611 444.801C569.142 423.642 571.038 398.547 578.009 378.516C584.691 359.315 595.816 365.074 609.974 371.345C603.041 371.137 594.422 363.826 587.576 369.217C584.974 371.266 583.229 375.207 581.751 378.114C574.335 392.743 573.851 411.281 571.884 427.403C571.389 431.458 571.366 438.935 570.687 442.6L569.418 441.758C568.912 443.078 568.891 443.437 568.611 444.801Z"/><path fill="#04023E" d="M568.611 444.801C568.891 443.437 568.912 443.078 569.418 441.758L570.687 442.6C570.363 450.501 570.023 466.099 571.729 473.414C566.544 469.414 568.481 451.65 568.611 444.801Z"/><path fill="#04023E" d="M634.947 402.496C640.418 403.891 657.381 428.192 660.83 434.405C655.89 431.389 650.888 420.748 647.044 415.716C643.294 410.808 638.881 407.082 634.947 402.496Z"/><path fill="#2A26E5" d="M614.312 586.798C609.458 583.585 604.961 578.11 601.383 573.694C585.901 554.549 575.165 529.147 578.729 504.179C579.584 498.186 581.257 483.053 590.838 491.64C591.746 493.007 591.917 494.037 591.409 495.59C583.763 518.988 591.676 538.551 604.697 557.99C606.873 561.24 609.193 565.213 611.794 568.263C615.117 572.728 624.292 577.551 622.82 583.853C622.436 585.497 616.693 589.376 614.312 586.798Z"/><path fill="#04023E" d="M614.312 586.798C609.458 583.585 604.961 578.11 601.383 573.694C585.901 554.549 575.165 529.147 578.729 504.179C579.584 498.186 581.257 483.053 590.838 491.64C582.356 490.345 582.767 495.949 581.464 502.355C576.148 528.481 588.522 555.788 604.629 575.781C606.331 577.894 613.831 585.064 614.312 586.798Z"/><path fill="#2A26E5" d="M672.249 467.894C665.845 462.331 671.902 456.466 679.643 459.598C682.893 460.786 696.261 478.27 698.386 481.525C701.506 486.351 704.302 491.379 706.756 496.576C715.327 515.155 716.454 537.173 710.135 557.056C709.764 558.222 709.039 558.959 708.1 559.717C705.822 560.169 705.294 559.866 703.415 558.42C700.018 553.352 703.793 547.318 703.969 541.138C704.483 523.108 699.791 503.527 690.471 488.044C687.238 482.673 681.95 476.846 677.709 472.309C675.831 470.841 674.047 469.467 672.249 467.894Z"/><path fill="#04023E" d="M677.709 472.309C696.769 483.608 708.036 523.75 705.417 544.581C704.846 549.123 703.834 553.884 703.415 558.42C700.018 553.352 703.793 547.318 703.969 541.138C704.483 523.108 699.791 503.527 690.471 488.044C687.238 482.673 681.95 476.846 677.709 472.309Z"/><path fill="#04023E" d="M672.249 467.894C665.845 462.331 671.902 456.466 679.643 459.598C673.088 459.406 670.726 461.21 672.249 467.894Z"/><path fill="#2A26E5" d="M672.373 568.518C669.224 564.81 670.837 560.746 671.264 556.187C671.815 550.311 672.529 543.646 671.604 537.789C669.126 522.11 663.037 506.968 652.576 494.902C651.099 492.631 646.332 488.022 647.028 484.999C647.973 480.889 651.466 480.758 654.699 481.576C666.245 488.646 679.244 516.572 682.213 530.017C683.988 538.054 686.985 566.522 674.989 569.364C673.756 569.656 673.27 569.191 672.373 568.518Z"/><path fill="#04023E" d="M672.373 568.518C669.224 564.81 670.837 560.746 671.264 556.187C671.815 550.311 672.529 543.646 671.604 537.789C669.126 522.11 663.037 506.968 652.576 494.902C651.099 492.631 646.332 488.022 647.028 484.999C647.973 480.889 651.466 480.758 654.699 481.576C651.708 482.086 647.492 483.321 648.763 487.476C650.298 492.492 655.541 496.582 658.457 500.84C668.423 514.835 674.442 533.162 673.88 550.381C673.683 556.419 672.229 563.04 672.373 568.518Z"/><path fill="#2A26E5" d="M636.262 559.193C631.013 555.566 625.231 539.373 622.76 532.986C619.505 524.724 618.227 516.274 616.928 507.549C616.357 503.714 612.559 497.305 618.28 495.559C620.364 494.924 621.294 495.552 623.002 496.575C626.119 498.885 632.65 525.413 634.565 531.505C636.816 538.666 651.827 558.031 638.499 559.07C637.754 559.125 637.008 559.166 636.262 559.193Z"/><path fill="#04023E" d="M636.262 559.193C631.013 555.566 625.231 539.373 622.76 532.986C619.505 524.724 618.227 516.274 616.928 507.549C616.357 503.714 612.559 497.305 618.28 495.559C620.364 494.924 621.294 495.552 623.002 496.575C621.699 496.929 619.733 497.397 619.093 498.557C616.776 502.758 621.268 521.038 622.454 525.239C624.482 532.546 627.1 539.677 630.283 546.56C631.606 549.397 635.654 556.798 636.262 559.193Z"/><path fill="#E3E1F8" d="M729.473 510.277L730.145 510.802C731.304 514.45 731.811 521.741 732.087 525.75C734.235 556.849 706.797 599.69 673.074 601.175L672.688 600.688L672.997 600.194C688.992 598.436 699.891 591.708 710.43 579.627C722.874 565.362 730.918 548.011 730.925 528.877C730.928 523.033 729.908 516.281 729.473 510.277Z"/><path fill="#E3E1F8" d="M726.101 521.82L726.833 522.565C729.675 541.743 718.321 564.531 705.679 578.272C694.661 590.249 687.276 594.341 672.126 598.889L671.621 598.29C673.25 596.87 676.55 596.745 679.15 595.703C687.629 592.304 693.607 588.669 700.089 582.271C718.857 563.748 725.75 547.557 726.101 521.82Z"/><path fill="#07E5A3" d="M436.383 556.2C446.316 555.699 466.265 557.397 476.507 558.331C497.776 560.27 521.772 565.409 540.507 575.847C546.509 579.063 551.199 584.062 556.423 588.146C577.96 604.98 591.303 634.87 587.924 662.219C584.798 683.143 575.039 707.212 557.7 720.218C532.195 739.35 503.03 745.195 472.006 741.267C441.429 735.087 413.146 716.156 389.034 697.024C373.376 684.6 341.422 655.245 329.94 639.494C324.246 631.682 318.376 621.117 317.347 611.347C316.603 604.277 318.591 598.085 323.046 592.587C342.75 568.271 406.111 559.261 436.383 556.2Z"/><path fill="#00B785" d="M352.942 632.639C347.662 626.061 341.896 617.744 340.559 609.165C339.472 602.648 347.927 597.069 353.081 594.908C362.119 591.158 373.493 588.732 382.932 586.588C392.796 584.349 437.813 574.389 444.023 580.043C444.924 582.976 445.49 587.254 441.425 588.104C434.317 589.589 426.875 589.797 419.697 590.956C400.646 593.85 366.179 600.222 350.503 610.273C356.618 617.518 361.104 625.253 366.679 632.062C376.919 643.934 388.977 654.076 401.184 663.814C404.349 666.34 412.544 670.969 411.87 675.07C410.895 680.998 406.406 683.044 401.822 678.702C397.584 674.686 387.686 668.978 384.292 664.49C374.538 655.855 361.025 642.851 352.942 632.639Z"/><defs><linearGradient id="gradient_1" gradientUnits="userSpaceOnUse" x1="398.24524" y1="613.63446" x2="386.48941" y2="582.66656"><stop offset="0" stop-color="#044531"/><stop offset="1" stop-color="#02755F"/></linearGradient></defs><path fill="url(#gradient_1)" d="M352.942 632.639C347.662 626.061 341.896 617.744 340.559 609.165C339.472 602.648 347.927 597.069 353.081 594.908C362.119 591.158 373.493 588.732 382.932 586.588C392.796 584.349 437.813 574.389 444.023 580.043C426.214 578.548 380.638 588.816 362.27 594.272C358.38 595.428 352.011 598.571 348.916 601.372C346.808 603.28 343.585 606.646 343.468 609.644C343.195 616.675 349.716 627.144 353.858 632.286L352.942 632.639Z"/><path fill="#0E725C" d="M353.858 632.286C363.095 642.867 373.039 652.717 383.2 662.405C383.946 663.116 384.077 663.548 384.292 664.49C374.538 655.855 361.025 642.851 352.942 632.639L353.858 632.286Z"/><path fill="#00B785" d="M455.842 658.998C448.525 652.487 454.963 645.705 462.056 649.577C470.204 654.718 478.602 659.678 486.628 664.736C494.155 667.955 501.962 669.685 509.846 671.75C518.731 674.078 527.743 675.276 536.677 677.297C538.305 677.665 539.317 678.586 540.469 679.704C542.648 685.553 538.132 687.686 533.022 687.394C507.939 685.957 473.841 677.083 455.842 658.998Z"/><path fill="#02543E" d="M486.628 664.736C494.155 667.955 501.962 669.685 509.846 671.75C518.731 674.078 527.743 675.276 536.677 677.297C538.305 677.665 539.317 678.586 540.469 679.704C532.905 677.803 489.486 669.722 486.628 664.736Z"/><path fill="#02543E" d="M455.842 658.998C448.525 652.487 454.963 645.705 462.056 649.577C459.778 650.173 457.761 650.45 455.959 651.886C454.128 655.139 455.658 656.085 455.842 658.998Z"/><path fill="#00B785" d="M476.843 591.14C475.428 589.693 474.107 586.844 474.631 584.953C476.134 579.525 481.361 580.478 484.808 581.094C496.606 584.402 511.213 589.683 522.651 594.249C527.505 595.219 546.136 605.203 550.669 608.97C553.943 611.691 547.651 622.01 541.918 619.34C536.65 616.885 532.527 612.811 527.08 610.232C518.77 606.297 510.052 603.383 501.443 600.149C493.94 597.335 484.866 593.145 477.24 591.236L476.843 591.14Z"/><path fill="#02543E" d="M476.843 591.14C475.428 589.693 474.107 586.844 474.631 584.953C476.134 579.525 481.361 580.478 484.808 581.094L484.345 582.109C476.893 582.138 478.676 586.546 476.843 591.14Z"/><path fill="#0E725C" d="M484.808 581.094C496.606 584.402 511.213 589.683 522.651 594.249C520.554 594.405 489.641 583.532 484.345 582.109L484.808 581.094Z"/><path fill="#00B785" d="M473.741 628.46C466.508 621.588 472.107 614.374 482.017 618.758C484.054 619.581 493.684 624.131 495.623 625.266C505.324 629.166 515.241 632.508 525.324 635.274C530.497 636.712 545.144 638.717 547.535 641.276C548.131 642.011 548.441 642.756 548.58 643.743C548.884 645.906 547.988 646.911 546.812 648.58C545.886 649.894 544.596 651.044 542.903 651.044C530.812 651.046 480.83 634.198 473.741 628.46Z"/><path fill="#02543E" d="M495.623 625.266C505.324 629.166 515.241 632.508 525.324 635.274C530.497 636.712 545.144 638.717 547.535 641.276C541.387 641.569 498.251 629.205 495.623 625.266Z"/><path fill="#02543E" d="M473.741 628.46C466.508 621.588 472.107 614.374 482.017 618.758C473.686 617.924 472.803 620.79 473.741 628.46Z"/><path fill="#00B785" d="M436.774 696.161C430.413 690.1 437.333 682.4 444.047 687.335C446.725 688.835 454.708 692.254 456.092 693.224C459.458 694.058 469.751 697.678 473.001 699.034C480.163 702.025 508.552 705.25 512.457 709.123C514.098 713.487 511.555 716.14 508.729 719.04C494.169 717.962 447.474 705.189 436.774 696.161Z"/><path fill="#02543E" d="M456.092 693.224C459.458 694.058 469.751 697.678 473.001 699.034C480.163 702.025 508.552 705.25 512.457 709.123C504.154 706.572 460.589 699.11 456.092 693.224Z"/><path fill="#02543E" d="M436.774 696.161C430.413 690.1 437.333 682.4 444.047 687.335C437.095 686.866 437.108 690.51 436.774 696.161Z"/><path fill="#BEF8EA" d="M562.468 609.749L564.082 610.391C577.561 625.518 583.254 669.124 571.727 686.501C562.799 699.959 549.76 716.731 534.299 723.468C530.204 725.253 523.594 726.475 519.124 727.731L518.338 727.176C519.395 725.048 528.683 724.46 531.304 723.403C549.482 716.071 571.377 691.801 575.675 672.824C578.852 658.8 575.504 636.761 570.345 623.76C568.659 619.511 565.038 613.757 562.468 609.749Z"/><path fill="#BEF8EA" d="M563.896 622.262C565.274 622.978 566.073 623.856 566.61 625.447C571.576 640.105 576.673 657.225 571.047 672.546C564.546 690.248 548.865 708.906 532.931 719.006C528.808 721.619 522.867 720.997 518.326 723.65C517.438 722.738 517.622 722.366 517.822 721.358C520.602 719.973 527.971 720.522 529.973 719.38C546.018 710.226 562.398 690.897 569.011 674.319C575.308 658.53 570.437 636.573 563.896 622.262Z"/><path fill="#00B785" d="M501.54 726.802C502.919 727.657 502.355 727.049 502.882 729.024C504.627 729.022 503.134 728.382 505.559 726.794C506.491 727.755 506.302 728.167 506.649 729.715C505.828 731.333 505.402 731.678 503.849 732.424C500.984 731.842 501.151 729.192 501.54 726.802Z"/><path fill="#FE7150" d="M354.058 334.817C366.464 326.078 378.074 317.789 391.61 310.797C395.947 308.556 400.133 305.202 404.6 303.089C410.649 300.08 417.653 297.764 423.951 295.397C440.132 289.313 453.963 284.196 471.523 283.382C477.165 283.121 481.678 282.53 487.582 283.483C495.123 284.701 498.421 288.802 502.793 294.286C511.393 305.075 509.426 326.943 507.103 339.84C503.559 358.672 498.87 377.238 493.881 395.732C492.212 401.922 491.548 409.604 489.535 415.337C484.514 429.633 478.62 447.268 472.055 460.776C462.466 480.211 447.949 496.793 429.953 508.868C389.693 536.045 338.205 529.229 310.488 487.53C297.486 467.97 290.232 439.856 295.136 416.524C299.894 394.829 310.671 374.914 326.231 359.065L327.259 358.006C329.019 356.744 330.153 355.503 331.66 353.985L334.199 351.785C336.273 350.056 337.313 348.922 339.105 346.973C339.845 346.465 340.394 345.985 341.086 345.416L344.684 342.379L346.126 340.931C347.747 339.916 349.76 338.156 351.286 336.905C352.502 336.26 353.04 335.708 354.058 334.817Z"/><path fill="#F74728" d="M378.89 350.462C368.693 343.926 383.357 337.378 388.242 334.267C411.642 319.365 436.789 309.162 464.114 304.214C469.781 303.189 480.14 302 485.046 305.44C487.187 309.503 486.894 312.861 482.053 314.59C475.913 316.783 468.984 315.692 462.662 317.04C448.408 319.974 434.308 324.912 420.701 330.067C414.617 332.372 406.329 336.7 400.547 339.942C395.499 342.772 389.971 347.995 384.405 350.194C383.085 350.716 380.355 350.523 378.89 350.462Z"/><path fill="#B72C18" d="M378.89 350.462C368.693 343.926 383.357 337.378 388.242 334.267C411.642 319.365 436.789 309.162 464.114 304.214C469.781 303.189 480.14 302 485.046 305.44C470.457 306.063 466.378 306.197 452.269 310.055C432.68 315.411 415.454 322.063 397.794 332.334C391.752 335.725 384.657 339.035 379.791 344.028C377.71 346.163 377.995 347.879 378.89 350.462Z"/><path fill="#F74728" d="M318.912 445.103C315.96 442.627 314.996 440.431 316.644 436.559C324.738 417.797 340.396 402.32 354.288 387.689C360.001 381.672 366.649 371.101 375.562 374.54C379.563 381.625 374.972 383.808 369.991 389.077C357.395 402.4 343.963 413.771 334.05 429.463C330.467 435.135 326.109 446.401 318.912 445.103Z"/><path fill="#B72C18" d="M318.912 445.103C315.96 442.627 314.996 440.431 316.644 436.559C324.738 417.797 340.396 402.32 354.288 387.689C360.001 381.672 366.649 371.101 375.562 374.54C367.084 377.229 362.433 384.109 356.387 390.385C345.876 401.294 317.793 429.743 318.912 445.103Z"/><path fill="#F74728" d="M346.186 470.829C343.754 468.338 342.166 464.129 345.029 461.563C359.299 448.964 371.934 435.434 384.8 421.415C389.765 416.005 399.697 395.528 408.02 403.898C408.769 406.755 408.921 408.399 407.263 411.008C403.137 417.501 397.73 423.17 392.78 428.987C382.353 441.24 372.052 453.063 359.833 463.607C357.03 466.027 353.981 470.474 350.48 471.787C348.904 472.283 347.552 471.582 346.186 470.829Z"/><path fill="#B72C18" d="M346.186 470.829C343.754 468.338 342.166 464.129 345.029 461.563C359.299 448.964 371.934 435.434 384.8 421.415C389.765 416.005 399.697 395.528 408.02 403.898C406.408 403.558 403.966 403.102 402.682 404.426C396.768 410.525 392.118 417.923 386.537 424.409C380.18 431.848 373.513 439.017 366.553 445.895C362.329 450.081 346.481 462.353 346.013 467.254C345.898 468.46 346.041 469.632 346.186 470.829Z"/><path fill="#F74728" d="M384.257 487.438C377.317 480.981 385.693 477.228 390.372 473.578C403.09 463.657 414.032 451.597 424.358 439.261C428.258 434.602 430.397 427.253 435.606 423.826C436.98 422.946 439.792 423.821 441.229 424.33C442.507 426.127 443.562 427.968 443.092 430.272C441.606 437.546 414.599 467.29 408.295 473.399C403.136 478.398 396.172 484.568 390.02 488.275C388.988 488.896 388.167 489.183 386.987 488.843C385.938 488.541 385.165 488.029 384.257 487.438Z"/><path fill="#B72C18" d="M384.257 487.438C377.317 480.981 385.693 477.228 390.372 473.578C403.09 463.657 414.032 451.597 424.358 439.261C428.258 434.602 430.397 427.253 435.606 423.826C436.98 422.946 439.792 423.821 441.229 424.33C439.836 424.913 437.624 425.745 436.547 426.839C433.083 430.361 430.448 437.041 427.474 440.609C419.431 450.258 410.388 459.821 401.312 468.626C396.677 473.123 387.129 478.403 384.233 484.419C383.926 485.057 384.175 486.752 384.257 487.438Z"/><path fill="#D6B6B0" d="M477.035 423.19C479.207 424.923 476.702 432.403 475.969 434.83C470.974 451.377 460.936 469.597 448.63 482.042C430.459 500.417 405.008 517.635 378.234 517.642C356.806 517.375 344.266 511.752 329.515 497.347L329.231 496.551C329.751 496.538 339.232 504.912 341.261 506.251C349.169 511.417 358.155 514.702 367.53 515.854C417.807 522.495 470.647 470.978 477.035 423.19Z"/><path fill="#D6B6B0" d="M468.48 434.234L468.958 435.521C468.409 438.357 467.224 440.391 466.153 443.083C459.854 458.905 451.687 470.811 438.715 481.921C417.924 499.729 395.882 513.396 367.313 511.573C352.634 510.635 340.626 501.039 331.404 490.285L331.135 489.791L331.308 489.273C332.868 489.886 338.141 496.089 340.272 497.88C344.674 501.382 350.878 506.291 356.304 508.025C381.878 516.195 406.692 504.936 426.717 490.014C450.302 472.44 458.05 460.707 468.48 434.234Z"/><path fill="#F74728" d="M498.129 322.276C496.171 315.554 495.788 309.183 491.443 303.013C489.499 300.252 487.406 298.471 485.58 295.562C486.516 295.557 487.123 296.301 488.077 297.004L490.485 296.07L491.231 295.933C497.797 303.078 504.591 314.495 502.635 324.617L502.291 325.015C499.825 325.599 500.32 325.873 498.299 325.166C497.47 323.504 497.664 324.415 498.129 322.276Z"/><path fill="#D6B6B0" d="M490.485 296.07L491.231 295.933C497.797 303.078 504.591 314.495 502.635 324.617C502.108 323.691 500.189 313.037 499.465 310.499C498.921 309.581 498.251 307.3 497.43 305.957C495.32 302.511 492.882 299.31 490.485 296.07Z"/><path fill="#D6B6B0" d="M498.129 322.276C496.171 315.554 495.788 309.183 491.443 303.013C489.499 300.252 487.406 298.471 485.58 295.562C486.516 295.557 487.123 296.301 488.077 297.004C492.005 301.647 495.915 306.803 497.143 312.894C497.786 315.785 498.83 319.425 498.129 322.276Z"/><path fill="#5857FC" d="M568.995 324.205C581.036 319.69 593.37 316.019 606.102 319.429C615.717 322.872 628.465 329.355 635.013 337.281C638.283 341.239 631.774 348.415 627.515 344.43C612.864 330.718 601.301 327.325 581.31 330.957C560.391 334.757 550.58 353.637 546.905 373.347C545.792 379.336 547.239 389.719 537.411 384.565C535.855 382.219 535.614 380.54 535.999 377.677C538.58 358.535 543.651 339.474 560.552 328.026C562.656 326.601 566.536 325.207 568.995 324.205Z"/><path fill="#221B92" d="M537.411 384.565C535.855 382.219 535.614 380.54 535.999 377.677C538.58 358.535 543.651 339.474 560.552 328.026C562.656 326.601 566.536 325.207 568.995 324.205L570.99 324.875C568.943 325.996 562.513 328.812 561.363 329.713C552.747 336.459 544.56 348.649 541.819 359.212C539.986 366.277 537.664 377.48 537.411 384.565Z"/><path fill="#04023E" d="M568.995 324.205C581.036 319.69 593.37 316.019 606.102 319.429C593.444 318.89 582.968 320.028 570.99 324.875L568.995 324.205Z"/><path fill="#07E5A3" d="M602.525 642.911C603.449 640.721 604.234 638.945 606.326 637.821C608.277 637.519 608.667 637.861 610.457 638.657C616.052 646.34 614.033 666.168 613.065 675.441C612.491 680.94 610.209 687.567 608.642 692.961C603.8 710.551 594.146 725.005 579.219 735.55C576.444 737.511 575.627 737.799 572.26 736.854C567.701 733.455 571.613 728.263 574.583 725.312C585.508 714.458 596.273 703.399 600.053 687.847C603.115 675.252 604.595 655.918 602.525 642.911Z"/><path fill="#0E725C" d="M602.525 642.911C603.449 640.721 604.234 638.945 606.326 637.821C608.277 637.519 608.667 637.861 610.457 638.657C602.694 641.77 605.178 647.989 605.265 655.247C605.502 675.018 604.424 694.315 591.84 710.637C588.288 715.375 582.964 719.914 578.993 724.267C575.14 728.489 571.478 731.04 572.26 736.854C567.701 733.455 571.613 728.263 574.583 725.312C585.508 714.458 596.273 703.399 600.053 687.847C603.115 675.252 604.595 655.918 602.525 642.911Z"/><path fill="#FE7150" d="M417.351 539.423C416.157 538.063 413.844 533.559 415.8 532.362C422.938 528.176 430.735 524.922 437.978 520.889C453.611 512.185 464.778 499.34 474.492 484.567C477.719 479.66 479.439 470.533 484.458 467.169C485.595 466.408 488.68 467.529 489.92 467.991C490.924 469.323 492.667 471.556 492.057 473.358C486.081 491.016 470.01 510.695 455.727 522.093C449.678 526.92 423.53 542.685 417.351 539.423Z"/><path fill="#B72C18" d="M417.351 539.423C416.157 538.063 413.844 533.559 415.8 532.362C422.938 528.176 430.735 524.922 437.978 520.889C453.611 512.185 464.778 499.34 474.492 484.567C477.719 479.66 479.439 470.533 484.458 467.169C485.595 466.408 488.68 467.529 489.92 467.991C487.616 468.558 485.195 469.535 484.13 471.91C473.669 495.224 455.492 516.645 431.813 527.14C427.848 528.897 420.79 531.369 417.803 534.518C417.526 534.81 417.491 538.605 417.351 539.423Z"/><path fill="#FE7150" d="M307.454 522.146C300.869 518.956 285.975 498.052 283.467 490.006C281.697 484.326 282.96 478.082 290.184 482.186C296.256 496.016 301.952 503.38 312.883 513.371C329.538 528.594 341.702 532.369 363.432 534.957C366.181 536.763 367.692 537.622 368.597 540.791C367.127 547.999 350.841 544.3 345.922 543.028C333.264 539.757 315.711 532.895 307.454 522.146Z"/><path fill="#B72C18" d="M307.454 522.146C300.869 518.956 285.975 498.052 283.467 490.006C281.697 484.326 282.96 478.082 290.184 482.186C269.916 483.778 307.209 520.69 307.454 522.146Z"/><path fill="#07E5A3" d="M305.302 648.007C296.832 639.062 289.87 614.405 292.885 602.09C295.114 592.985 300.227 573.931 313.21 578.74C321.108 587.094 307.482 588.417 305.233 593.823C299.175 608.383 302.915 626.142 310.926 638.627C312.407 640.933 314.061 643.124 315.873 645.181C318.861 648.537 326.566 654.731 325.879 659.501C325.56 661.715 321.599 663.681 319.5 662.361C316.211 659.663 307.404 651.545 305.302 648.007Z"/><path fill="#07494F" d="M305.302 648.007C296.832 639.062 289.87 614.405 292.885 602.09C295.114 592.985 300.227 573.931 313.21 578.74C303.332 579.18 300.345 586.617 296.978 594.351C290.293 609.705 295.056 625.355 301.442 639.937C302.576 642.516 304.279 645.365 305.302 648.007Z"/><path fill="#E3D0CC" d="M326.231 359.065C326.952 350.992 330.371 336.865 334.011 329.752C344.781 308.704 370.921 284.066 396.141 296.287C395.94 298.137 395.921 299.865 395.032 301.483C394.13 301.433 394.156 301.37 393.368 300.95C389.759 301.008 379.871 302.163 376.569 303.294C359.511 309.135 343.486 327.697 341.086 345.416C340.394 345.985 339.845 346.465 339.105 346.973C337.313 348.922 336.273 350.056 334.199 351.785L331.66 353.985C330.153 355.503 329.019 356.744 327.259 358.006L326.231 359.065Z"/><path fill="#C0A9A4" d="M326.231 359.065C326.952 350.992 330.371 336.865 334.011 329.752C344.781 308.704 370.921 284.066 396.141 296.287C395.94 298.137 395.921 299.865 395.032 301.483C394.13 301.433 394.156 301.37 393.368 300.95C389.759 301.008 379.871 302.163 376.569 303.294C359.511 309.135 343.486 327.697 341.086 345.416C340.394 345.985 339.845 346.465 339.105 346.973C343.631 326.5 357.01 308.483 377.275 302.038C380.807 300.914 393.098 300.397 394.065 296.903C392.821 295.399 390.154 295.247 388.278 295.044C374.776 293.579 365.523 297.352 355.392 306.013C336.267 322.365 332.178 334.737 327.259 358.006L326.231 359.065Z"/><path fill="#D6B6B0" d="M331.66 353.985C338.5 330.052 347.607 308.753 373.322 299.181C375.289 298.449 381.595 296.952 383.27 297.808C381.964 298.901 379.878 298.782 378.232 299.184C358.493 304.008 342.979 321.716 337.398 340.847C336.258 344.753 334.609 346.733 333.842 351.022L334.199 351.785L331.66 353.985Z"/><path fill="#FE7150" d="M515.822 287.892C514.568 287.264 513.688 286.775 512.935 285.489C512.311 284.423 512.179 283.139 512.574 281.968C513.96 277.917 518.51 277.297 522.085 278.678C531.789 287.569 535.126 299.774 535.954 312.6C536.79 325.569 531.837 336.806 526.831 348.407C524.505 353.711 523.013 363.569 515.187 358.868C512.094 353.797 518.161 345.55 520.06 339.977C526.144 322.119 526.677 307.272 518.797 290.048C517.561 288.792 517.487 288.531 515.822 287.892Z"/><path fill="#B72C18" d="M518.797 290.048C521.014 291.209 523.192 296.093 523.935 298.608C528.056 312.553 527.172 329.038 521.69 342.481C519.446 347.985 516.157 353.059 515.187 358.868C512.094 353.797 518.161 345.55 520.06 339.977C526.144 322.119 526.677 307.272 518.797 290.048Z"/><path fill="#B72C18" d="M515.822 287.892C514.568 287.264 513.688 286.775 512.935 285.489C512.311 284.423 512.179 283.139 512.574 281.968C513.96 277.917 518.51 277.297 522.085 278.678C517.268 279.746 512.207 282.19 515.822 287.892Z"/><path fill="#D6B6B0" d="M317.596 305.1C318.791 305.807 318.399 305.471 319.204 306.623C318.7 309.655 314.941 311.202 312.528 313.05C296.13 325.612 291.29 346.483 294.536 366.129C295.119 369.656 296.628 372.153 297.488 375.387L297.722 376.298L297.196 375.528C283.461 355.706 291.991 311.231 317.596 305.1Z"/><path fill="#C0A9A4" d="M549.669 432.543C533.884 451.932 521.351 481.158 508.51 502.826C506.987 505.397 506.975 508.329 504.815 510.585L504.322 510.242C505.383 503.88 535.346 450.995 540.61 442.731C542.388 439.939 547.312 433.733 549.712 430.9L549.669 432.543Z"/><path fill="#D6B6B0" d="M549.18 445.598C549.14 444.222 549.308 442.803 548.719 441.725C542.574 448.708 517.741 496.927 514.465 497.921C514.695 495.851 530.701 470.055 532.407 465.991C534.396 461.251 546.215 441.057 549.455 439.219L549.18 445.598Z"/><path fill="#D6B6B0" d="M344.684 342.379C346.541 327.696 363.981 312.271 376.7 306.724C379.936 305.312 386.537 303.931 389.901 305.306C388.281 306.307 383.081 306.256 380.713 306.95C376.591 308.089 372.263 310.303 368.688 312.614C360.363 317.996 347.699 330.688 346.126 340.931L344.684 342.379Z"/><path fill="#C0A9A4" d="M701.169 700.74L701.547 701.224C700.365 702.175 693.545 702.632 690.856 703.234C687.362 704.044 683.925 705.083 680.567 706.344C671.594 709.731 663.465 715.232 655.199 719.975C651.948 721.84 646.134 726.833 643.378 727.446L643.082 727.786C643.269 727.418 643.474 726.948 643.801 726.688C661.134 712.915 678.915 703.203 701.169 700.74Z"/><path fill="#D6B6B0" d="M549.14 449.411C549.34 452.137 549.449 454.195 549.446 456.948C541.201 469.596 533.704 482.761 525.907 495.689C523.587 499.535 521.454 503.337 518.807 506.974L518.494 506.933C521.306 500.9 524.774 496.115 527.951 490.436C534.684 478.4 542.432 466.584 549.189 454.658L549.14 449.411Z"/><path fill="#D6B6B0" d="M548.976 447.525L549.031 448.743C543.707 454.437 525.578 491.32 522.015 492.937C522.065 491.515 546.361 449.288 548.976 447.525Z"/><path fill="#C0A9A4" d="M671.589 352.612L672.14 352.861C666.723 367.2 668.551 379.183 679.998 389.698C681.753 391.31 684.692 393.662 685.206 395.79C676.936 389.434 669.494 381.613 668.111 370.77C667.477 365.805 668.415 356.568 671.589 352.612Z"/><path fill="#D6B6B0" d="M699.847 355.327C703.5 359.011 700.227 370.494 697.21 373.382L695.896 372.74C694.305 370.349 693.177 369.236 694.206 366.337C695.756 364.614 697.642 364.618 699.686 363.405C700.518 359.917 699.086 358.515 699.847 355.327Z"/><path fill="#D6B6B0" d="M548.738 464.847L549.255 465.547C548.536 467.926 545.065 472.043 543.417 474.755C536.759 485.719 529.763 496.219 523.561 507.467L522.977 506.964C525.289 500.74 544.375 471.157 548.738 464.847Z"/><path fill="#C0A9A4" d="M731.174 410.673C732.793 412.52 730.371 415.886 729.382 418.702C724.89 431.497 722.218 447.73 722.883 461.133C722.598 460.847 722.088 460.398 722.043 459.99C720.301 444.125 725.724 425.321 731.174 410.673Z"/><path fill="#DAC7C4" d="M736.123 573.775C740.188 571.476 737.273 571.624 739.765 570.254C741.893 572.769 738.151 571.242 741.115 573.552L743.462 573.721C744.666 575.114 744.359 575.588 743.911 577.455C741.268 579.202 743.622 581.23 742.271 583.43C741.249 581.885 741.767 581.533 740.231 579.705C738.066 580.472 737.705 580.861 735.975 579.545L736.51 578.83C737.938 578.436 738.384 578.302 739.732 577.706C739.548 576.553 737.278 576.163 735.35 574.333L736.123 573.775Z"/><path fill="#CBB8B2" d="M736.123 573.775C740.188 571.476 737.273 571.624 739.765 570.254C741.893 572.769 738.151 571.242 741.115 573.552L743.462 573.721C744.666 575.114 744.359 575.588 743.911 577.455C739.459 577.497 739.681 574.893 736.123 573.775Z"/><path fill="#D6B6B0" d="M351.286 336.905C351.232 336.354 351.184 335.614 351.552 335.133C356.151 329.128 381.152 304.173 389.243 309.271L388.915 309.753C387.887 309.863 384.81 310.123 383.993 310.355C374.435 313.068 359.175 326.581 354.058 334.817C353.04 335.708 352.502 336.26 351.286 336.905Z"/><path fill="#C0A9A4" d="M304.026 325.869L304.544 326.743C297.064 338.186 294.696 352.074 297.159 365.413C297.651 368.073 300.519 376.152 299.447 377.712L297.882 377.988C297.695 377.292 297.682 376.912 297.598 376.197L298.704 376.654C299.095 375.964 296.84 368.296 296.473 366.606C293.477 352.563 296.195 337.905 304.026 325.869Z"/><path fill="#C0A9A4" d="M726.478 406.268L727.142 406.609C727.073 406.991 723.287 415.746 722.77 417.09C717.88 429.798 716.198 439.431 715.855 452.898C713.301 449.173 717.42 429.494 718.803 424.836C720.545 418.966 723.814 411.83 726.478 406.268Z"/><path fill="#DAC7C4" d="M514.585 513.381C515.125 513.349 514.733 513.334 515.661 513.858L515.339 514.545C513.463 515.251 506.338 515.015 503.259 515.605C496.519 516.895 490.721 518.697 484.169 520.633L483.642 520.783L483.564 519.976C490.087 515.188 506.56 513.897 514.585 513.381Z"/><path fill="#C0A9A4" d="M512.201 542.054C516.007 541.913 517.948 541.758 521.71 542.37L521.706 542.673C508.027 544.283 505.296 542.841 493.317 551.508C491.617 553.148 490.437 554.557 488.298 555.517C491.932 547.625 504.553 543.804 512.201 542.054Z"/><path fill="#D4C0BD" d="M701.493 305.69C702.773 306.142 703.212 306.903 704.229 307.977C704.679 307.838 705.132 307.705 705.586 307.58C707.064 307.185 708.51 306.637 709.618 307.287C708.658 309.352 708.862 308.493 709.309 311.004L708.272 310.94C705.391 312.912 708.012 311.8 707.364 314.395L706.691 314.588C704.645 312.634 702.509 311.091 700.264 309.378L701.493 305.69Z"/><path fill="#C0A9A4" d="M515.505 545.692C522.165 545.701 528.507 547.918 533.958 551.688C535.567 552.8 538.25 553.356 537.962 555.58C537.074 555.722 530.954 551.187 528.829 550.035C522.517 546.684 515.702 545.951 508.725 547.902C506.515 548.52 504.803 549.736 502.504 549.93L502.844 549.229C506.279 547.35 511.578 545.948 515.505 545.692Z"/><path fill="#C0A9A4" d="M303.548 333.841L303.76 334.83C300.371 343.888 298.822 350.699 299.665 360.438C299.985 364.129 302.051 373.669 301.349 376.139C297.913 360.786 296.287 348.763 303.548 333.841Z"/><path fill="#C0A9A4" d="M309.946 328.942C311.202 331.388 306.044 336.466 304.944 341.011C302.971 349.165 302.638 354.372 302.22 362.581L301.971 362.549L301.48 361.873C300.11 351.399 304.083 337.875 309.946 328.942Z"/><path fill="#C0A9A4" d="M676.064 351.646C676.295 351.714 676.129 351.633 676.629 352.106C670.96 367.367 671.002 370.459 679.198 384.362C671.092 378.637 669.278 358.166 676.064 351.646Z"/><path fill="#DAC7C4" d="M723.363 352.682C724.383 352.95 724.121 352.889 725.055 353.444C728.085 358.643 727.836 366.117 726.793 371.905C726.459 371.431 726.125 370.958 725.792 370.484C725.25 362.613 726.565 359.863 723.363 352.682Z"/><path fill="#C0A9A4" d="M689.973 338.551C694.112 338.311 702.794 339.468 704.881 343.245C703.488 343.467 702.031 342.585 700.523 341.981L696.523 341.693L697.956 340.959L698.019 340.385C693.114 338.295 687.58 341.199 685.833 340.298C686.843 339.154 688.414 338.975 689.973 338.551Z"/><path fill="#C0A9A4" d="M735.065 350.751C735.916 351.331 736.131 351.432 736.641 352.409C741.202 361.152 740.16 369.031 737.315 377.844L736.65 377.909C736.48 376.221 737.587 374.335 737.95 372.391C739.579 363.665 738.4 358.665 735.065 350.751Z"/><path fill="#C0A9A4" d="M740.555 349.646C747.552 353.367 746.004 369.299 744.64 375.892C744.378 375.544 744.116 375.196 743.855 374.848C744.239 369.996 745.482 366.369 744.756 361.475C743.971 356.191 742.927 354.191 740.555 349.646Z"/><path fill="#C0A9A4" d="M397.261 735.708L397.785 735.631C399.492 736.717 403.484 737.115 405.245 735.912C406.951 735.944 406.192 735.714 407.62 736.577L407.207 736.905C401.658 736.539 396.435 737.098 390.948 737.698C387.926 738.007 384.899 738.714 381.918 739.339C385.36 736.914 393.156 736.031 397.261 735.708Z"/><path fill="#C0A9A4" d="M512.974 549.575C518.338 549.062 523.931 550.005 528.437 553.065C527.846 553.364 521.526 551.069 519.557 550.618C513.412 550.297 509.969 551.201 504.23 553.136C507.223 550.959 509.479 550.46 512.974 549.575Z"/><path fill="#C0A9A4" d="M699.977 707.246L700.716 707.635C699.665 708.538 695.819 708.826 694.068 709.069C689.019 709.771 684.513 711.551 679.702 713.235L679.148 713.271L679.168 712.7C686.865 709.415 691.67 707.779 699.977 707.246Z"/><path fill="#C0A9A4" d="M514.042 560.034C515.215 560.174 516.385 560.335 517.553 560.516C522.577 561.316 527.57 563.235 530.644 567.479L530.468 567.852L527.499 565.678C521.668 562.357 520.619 561.984 514.016 560.65C512.579 561.232 511.123 562.062 509.675 561.841C511.296 560.558 511.966 560.555 514.042 560.034Z"/><path fill="#C0A9A4" d="M711.3 447.904C710.577 443.28 713.741 427.428 715.809 424.166L716.226 424.06C715.841 426.447 711.548 447.551 711.3 447.904Z"/><path fill="#D6B6B0" d="M682.391 377.663C683.888 378.28 692.512 387.581 696.152 388.739C696.961 388.997 696.803 389.449 697.187 390.667L696.312 390.758C691.577 387.482 685.042 382.932 682.391 377.663Z"/><path fill="#C0A9A4" d="M712.4 422.779C712.496 422.979 712.845 424.19 712.832 424.239C711.24 430.478 709.145 436.593 708.189 442.925C706.501 439.889 710.624 426.108 712.4 422.779Z"/><path fill="#C0A9A4" d="M549.923 472.214C547.911 475.202 539.593 489.927 537.85 491.094L537.644 490.509C539.401 487.494 547.822 472.423 549.894 471.427L549.923 472.214Z"/><path fill="#C0A9A4" d="M733.605 354.213C738.378 358.459 736.534 370.685 734.941 376.334C733.438 375.14 734.288 374.633 734.797 372.692C736.562 365.966 735.573 360.57 733.605 354.213Z"/><path fill="#C0A9A4" d="M697.877 704.205C699.337 703.989 699.371 703.837 700.678 704.42L700.537 704.861C692.782 705.509 689.656 706.646 682.237 708.874C680.851 709.452 680.538 709.902 679.437 709.565L679.722 709.095C684.062 706.834 693.011 704.635 697.877 704.205Z"/><path fill="#C0A9A4" d="M695.876 711.156C697.438 710.864 698.119 711.033 699.67 711.215C700.213 710.694 684.827 714.912 682.877 715.742C681.543 716.29 680.504 716.585 679.135 716.989L678.904 716.783C684.727 713.887 689.222 711.991 695.876 711.156Z"/><path fill="#C0A9A4" d="M677.71 356.804L678.01 357.822C676.989 361.411 676.178 366.114 676.362 369.915C676.449 371.699 678.818 375.662 678.483 377.622C673.68 373.025 675.488 362.343 677.71 356.804Z"/><path fill="#D6B6B0" d="M730.095 343.809C732.286 343.998 736.165 344.706 737.523 346.538L737.128 347.238L734.302 347.898L733.829 348.454C733.045 347.263 732.63 346.713 731.717 345.616L731.007 345.748C731.088 346.987 731.234 346.566 730.76 347.578L730.042 347.147C729.544 344.827 729.444 345.895 730.095 343.809Z"/><path fill="#C0A9A4" d="M514.234 553.069C517.868 552.84 524.65 553.786 527.207 556.592C524.877 556.003 523.345 555.426 521.12 554.58C515.16 553.108 510.748 554.704 505.199 556.576C508.449 554.292 510.343 553.786 514.234 553.069Z"/><path fill="#DAC7C4" d="M743.075 615.199C745.461 615.801 746.743 619.633 746.332 621.642C744.627 622.472 743.73 622.982 742.139 624.015L741.722 621.95C742.894 619.171 741.935 622.124 744.223 620.83C744.652 618.199 742.899 617.962 743.075 615.199Z"/><path fill="#C0A9A4" d="M719.409 439.716C720.157 441.111 719.316 455.466 719.039 457.654C717.561 452.814 717.859 444.441 719.409 439.716Z"/><path fill="#C0A9A4" d="M739.525 353.718C743.666 356.116 742.988 367.647 742.293 371.842C741.212 371.207 741.513 370.911 741.728 368.942C742.381 362.968 741.722 359.12 739.525 353.718Z"/><path fill="#C0A9A4" d="M681.237 382.165L681.987 382.139C685.743 385.488 690.654 389.836 694.275 393.215C688.91 392.084 684.891 385.847 681.237 382.165Z"/><path fill="#C0A9A4" d="M690.147 365.729L690.58 365.886C690.929 374.63 694.915 371.808 696.34 376.601C693.767 375.061 686.018 368.577 690.147 365.729Z"/><path fill="#C0A9A4" d="M317.349 312.401C317.41 313.221 317.404 314.618 316.622 315.141C313.015 317.552 310.298 319.42 307.369 322.626C307.016 322.739 307.216 322.732 306.78 322.512C308.825 319.439 314.353 314.948 317.349 312.401Z"/><path fill="#C0A9A4" d="M683.701 358.225C684.195 358.644 683.903 358.348 684.427 359.24C681.961 365.655 682.873 368.316 685.256 374.282C680.485 371.026 682.101 362.878 683.701 358.225Z"/><path fill="#D6B6B0" d="M550.006 489.382L550.256 490.081C549.589 492.141 544.219 500.808 542.821 503.165L542.593 501.998C544.212 498.377 547.703 492.651 550.006 489.382Z"/><path fill="#C0A9A4" d="M693.296 347.089C696.216 346.892 696.89 346.942 699.788 347.393L700.148 348.095C699.117 348.291 693.976 348.068 692.502 348.039C690.27 348.723 688.542 349.408 686.21 349.486L687.305 348.734L686.437 349.477L686.764 348.949C689.497 347.847 690.385 347.65 693.296 347.089Z"/><path fill="#C0A9A4" d="M550.675 483.861C548.386 486.585 541.994 497.468 540.562 498.489C540.884 496.286 548.591 484.619 550.512 483.34L550.675 483.861Z"/><path fill="#C0A9A4" d="M680.398 358.846L680.687 359.582C679.972 363.713 679.746 367.292 680.452 371.48L681.001 374.938C678.114 369.55 678.16 364.495 680.398 358.846Z"/><path fill="#C0A9A4" d="M513.51 556.506C516.562 556.358 521.162 556.169 523.36 558.685L522.598 558.339L522.917 558.798C522.393 558.704 520.859 557.931 520.283 557.664C516.177 557.217 513.785 557.779 509.756 558.104C510.242 557.377 512.45 556.863 513.51 556.506Z"/><path fill="#C0A9A4" d="M395.136 733.093C397.955 733.018 406.403 732.634 408.627 733.266L408.363 734.079C406.035 734.078 395.971 734.337 394.608 733.615L395.136 733.093Z"/><path fill="#C0A9A4" d="M693.944 350.063C696.672 350.101 698.964 350.155 701.088 351.903L700.571 352.277L698.234 351.398C695.892 351.154 692.724 351.567 690.04 351.564C691.491 350.628 692.302 350.511 693.944 350.063Z"/><path fill="#C0A9A4" d="M389.163 733.579C390.936 733.419 391.217 733.429 392.998 733.584C392.248 734.266 385.379 735.483 383.893 735.79C382.483 736.402 381.888 736.963 380.613 736.782C383.922 734.685 385.409 734.396 389.163 733.579Z"/><path fill="#C0A9A4" d="M536.596 549.831C539.814 550.601 543.816 556.055 545.69 558.771L545.129 558.892C542.283 555.869 539.251 553.011 536.596 549.831Z"/><path fill="#C0A9A4" d="M686.965 378.173L687.668 377.899C690.249 380.227 696.499 384.086 697.424 385.605C693.138 384.984 690.408 381.047 686.965 378.173Z"/><path fill="#C0A9A4" d="M689.876 719.051L690.205 719.376C689.277 720.542 682.095 723.214 679.772 724.478L679.325 724.187C680.146 722.508 687.659 719.932 689.876 719.051Z"/><path fill="#C0A9A4" d="M538.003 560.706C541.685 562.725 543.253 568.287 543.988 572.172C543.434 571.767 539.408 562.993 538.003 560.706Z"/><path fill="#C0A9A4" d="M689.218 375.232L690.05 375.149C692.144 377.257 693.097 378.643 696.193 379.102L696.405 380.007C694.242 381.022 690.099 377.049 689.218 375.232Z"/><path fill="#C0A9A4" d="M725.798 446.712C727.186 448.944 725.929 455.776 725.169 458.298C724.29 455.413 725.282 449.728 725.798 446.712Z"/><path fill="#C0A9A4" d="M308.89 325.296C309.75 323.069 314.564 319.012 316.634 317.854C315.798 320.092 310.935 324.72 308.89 325.296Z"/><path fill="#D4C0BD" d="M311.302 713.835L312.302 714.654L312.298 715.644C310.744 717.681 310.336 717.939 309.965 720.362C309.597 720.156 309.005 719.668 308.646 719.395C308.535 717.84 310.362 715.515 311.302 713.835Z"/><path fill="#DAC7C4" d="M428.794 748.235L429.59 748.68C430.15 751.44 431.017 751.521 431.474 753.543C429.558 753.173 429.23 753.1 427.997 751.702C427.706 749.658 427.726 750.388 428.794 748.235Z"/><path fill="#C0A9A4" d="M635.514 733.019L635.675 733.259C635.554 735.435 629.903 739.471 627.843 741.602L627.428 742.038L627.13 741.721C627.954 739.032 633.104 736.532 635.514 733.019Z"/><path fill="#C0A9A4" d="M697.3 343.587C700.296 344.248 700.797 344.425 703.513 345.849L703.515 346.424L702.391 345.968C700.514 345.212 697.087 344.708 695.025 344.325L695.133 343.881L697.3 343.587Z"/><path fill="#C0A9A4" d="M686.857 360.293L687.416 360.91C686.692 364.062 685.991 366.571 686.595 369.763L685.63 368.693C684.873 365.125 685.536 363.759 686.857 360.293Z"/><path fill="#C0A9A4" d="M535.389 563.73C538.747 565.168 539.949 569.515 541.168 572.78C539.183 571.34 538.117 567.244 535.389 563.73Z"/><path fill="#C0A9A4" d="M303.512 333.699C304.787 331.069 306.663 327.172 308.89 325.296C307.621 328.307 306.171 331.724 303.512 333.699Z"/><path fill="#D6B6B0" d="M536.996 497.382C537.557 498.887 534.887 503.081 533.948 504.346L533.32 503.968C534.079 501.522 535.582 499.55 536.996 497.382Z"/><path fill="#DAC7C4" d="M299.155 693.189L299.804 693.22C301.453 696.233 300.855 697.64 300.217 701.016C298.99 699.666 300.076 697.154 299.155 693.189Z"/><path fill="#D4C0BD" d="M731.823 575.834L732.579 576.444L732.606 577.206C731.642 577.984 730.667 578.747 729.681 579.497L729.317 579.758L728.961 578.85C729.729 576.959 729.974 576.944 731.823 575.834Z"/><path fill="#C0A9A4" d="M745.013 353.717C747.815 354.973 747.614 357.93 747.414 360.485C746.679 357.692 746.106 356.32 745.013 353.717Z"/><path fill="#C0A9A4" d="M529.787 558.326C532.462 559.094 534.421 561.614 536.325 563.644C534.178 562.98 531.558 560.023 529.787 558.326Z"/><path fill="#C0A9A4" d="M544.863 565.232L545.949 565.836C547.138 567.508 547.345 568.919 547.882 570.923C546.296 570.219 545.676 567.306 544.863 565.232Z"/><path fill="#D6B6B0" d="M690.535 343.976L691.667 344.348C690.476 345.446 689.369 345.439 687.618 345.878L686.614 345.905C687.074 345.073 689.394 344.425 690.535 343.976Z"/><path fill="#C0A9A4" d="M641.014 729.075L641.28 729.345C640.489 731.051 639.141 731.551 637.478 732.759L637.101 732.558C638.024 731.137 639.603 730.167 641.014 729.075Z"/><path fill="#C0A9A4" d="M678.374 709.497L678.719 709.872C678.057 710.97 675.646 711.815 674.24 712.488L673.807 712.193C674.862 711.068 676.913 710.22 678.374 709.497Z"/><path fill="#C0A9A4" d="M509.952 505.857L510.191 506.453C510.097 508.274 509.51 508.912 508.563 510.466C507.814 508.301 508.71 507.648 509.952 505.857Z"/><path fill="#C0A9A4" d="M533.833 556.784C536.375 557.719 537.059 558.757 538.941 560.686C536.466 560.099 535.573 558.661 533.833 556.784Z"/><path fill="#C0A9A4" d="M733.978 404.937L734.31 405.431C734.441 407.157 733.976 407.374 733.127 409.209L732.677 408.8C732.404 407.375 733.253 406.304 733.978 404.937Z"/><path fill="#C0A9A4" d="M367.993 744.546L368.163 744.691C367.57 746.13 366.1 747.364 364.938 748.557L364.622 748.23C365.03 746.902 366.799 745.645 367.993 744.546Z"/></svg>